<?xml version="1.0" standalone="no"?>
<!DOCTYPE svg PUBLIC "-//W3C//DTD SVG 20010904//EN"
 "http://www.w3.org/TR/2001/REC-SVG-20010904/DTD/svg10.dtd">
<svg version="1.0" xmlns="http://www.w3.org/2000/svg"
 width="261.000000pt" height="261.000000pt" viewBox="0 0 261.000000 261.000000"
 preserveAspectRatio="xMidYMid meet">
<metadata>
Created by potrace 1.11, written by Peter Selinger 2001-2013
</metadata>
<g transform="translate(0.000000,261.000000) scale(0.100000,-0.100000)"
fill="#FFFFFF" stroke="none">
<path d="M412 2590 c-18 -11 -41 -34 -52 -52 -20 -32 -20 -53 -20 -1233 0
-1180 0 -1201 20 -1233 44 -72 139 -95 185 -46 l25 27 0 1248 c0 686 -3 1255
-6 1264 -8 21 -56 45 -91 45 -15 0 -43 -9 -61 -20z"/>
<path d="M1260 2591 c-19 -10 -44 -34 -55 -52 -19 -32 -20 -52 -20 -429 0
-369 2 -397 19 -427 41 -67 143 -91 189 -44 22 22 22 23 22 472 l0 451 -28 24
c-34 29 -79 31 -127 5z"/>
<path d="M2102 2591 c-18 -12 -41 -35 -52 -53 -20 -32 -20 -47 -18 -441 l3
-409 36 -33 c63 -58 166 -54 183 7 3 13 6 219 6 459 0 405 -1 438 -18 459 -26
32 -97 38 -140 11z"/>
</g>
</svg>
